<svg id="Layer_1" xmlns="http://www.w3.org/2000/svg" viewBox="0 0 293.2 344.3"><style>.st0{fill:#79c257}</style><path class="st0" d="M286.4 135c0-11.2-9.2-20.4-20.4-20.4s-20.4 9.2-20.4 20.4v85c0 11.2 9.2 20.4 20.4 20.4s20.4-9.2 20.4-20.4v-85zM48.4 135c0-11.2-9.2-20.4-20.4-20.4S7.6 123.8 7.6 135v85c0 11.2 9.2 20.4 20.4 20.4s20.4-9.2 20.4-20.4v-85zM191.6 37.8l14.4-26c.8-1.4.3-3.2-1.1-3.9-.4-.2-.9-.4-1.4-.4-1 0-2 .5-2.5 1.5l-14.6 26.3C174.5 30 161.1 27 147 27c-14.1 0-27.5 3-39.4 8.3L93.1 9c-.8-1.4-2.5-1.9-3.9-1.1-1.4.8-1.9 2.5-1.1 3.9l14.4 26C74.7 52.2 56 79.5 56 110.9h182c0-31.4-18.7-58.7-46.4-73.1zM105 77.6c-4.2 0-7.6-3.4-7.6-7.6s3.4-7.6 7.6-7.6 7.6 3.4 7.6 7.6-3.4 7.6-7.6 7.6zm84 0c-4.2 0-7.6-3.4-7.6-7.6s3.4-7.6 7.6-7.6 7.6 3.4 7.6 7.6-3.4 7.6-7.6 7.6zM56 118.1V250c0 12.2 9.8 22 22 22h14.6v45c0 11.2 9.2 20.4 20.4 20.4s20.4-9.2 20.4-20.4v-45h27.2v45c0 11.2 9.2 20.4 20.4 20.4s20.4-9.2 20.4-20.4v-45H216c12.2 0 22-9.8 22-22V118.1H56z"/></svg>
